<?xml version="1.0" standalone="no"?>
<!DOCTYPE svg PUBLIC "-//W3C//DTD SVG 20010904//EN"
 "http://www.w3.org/TR/2001/REC-SVG-20010904/DTD/svg10.dtd">
<svg version="1.0" xmlns="http://www.w3.org/2000/svg"
 width="360.000000pt" height="360.000000pt" viewBox="0 0 360.000000 360.000000"
 preserveAspectRatio="xMidYMid meet">
<metadata>
Created by potrace 1.14, written by Peter Selinger 2001-2017
</metadata>
<g transform="translate(0.000000,360.000000) scale(0.100000,-0.100000)"
fill="#000000" stroke="none">
<path d="M1705 3546 c-49 -29 -299 -174 -555 -321 -256 -148 -564 -326 -685
-396 l-220 -127 0 -902 0 -902 310 -179 c171 -98 360 -207 420 -242 61 -36
198 -115 305 -177 107 -62 268 -155 358 -206 l162 -95 163 95 c139 80 553 320
1227 709 l165 95 0 902 0 902 -125 72 c-342 198 -682 394 -1037 599 -216 125
-394 227 -395 227 -2 -1 -43 -25 -93 -54z m980 -1641 l0 -580 -364 -3 c-284
-2 -362 -5 -358 -15 3 -6 17 -40 32 -75 l28 -62 88 0 89 0 0 -40 0 -40 -390 0
c-214 0 -393 -1 -397 -2 -5 -2 -9 16 -11 40 l-3 42 89 0 89 0 28 62 c15 35 29
69 32 75 4 10 -74 13 -358 15 l-364 3 -3 570 c-1 314 0 576 3 583 3 10 186 12
887 10 l883 -3 0 -580z"/>
<path d="M1030 1905 l0 -465 770 0 770 0 0 465 0 465 -770 0 -770 0 0 -465z
m875 274 c-4 -17 -41 -153 -84 -303 -75 -266 -77 -271 -104 -274 -15 -2 -27 0
-27 4 0 11 161 587 167 597 2 4 16 7 29 7 23 0 25 -3 19 -31z m-265 -114 c0
-40 -1 -40 -202 -120 -53 -21 -95 -42 -93 -45 2 -3 69 -33 149 -66 146 -59
146 -59 146 -91 0 -18 -4 -33 -9 -33 -5 0 -92 35 -193 79 -177 76 -183 80
-186 109 -2 24 2 34 20 43 17 10 350 153 366 158 1 1 2 -15 2 -34z m525 -52
c178 -73 187 -79 183 -115 -3 -29 -9 -33 -186 -109 -101 -44 -188 -79 -193
-79 -5 0 -9 15 -9 33 0 32 0 32 146 91 80 33 147 62 149 66 3 5 -131 62 -252
109 -40 15 -43 18 -43 53 l0 37 48 -20 c26 -11 97 -41 157 -66z"/>
</g>
</svg>
